<svg width="551" height="227" viewBox="0 0 551 227" fill="none" xmlns="http://www.w3.org/2000/svg">
<g filter="url(#filter0_f_10_79)">
<path d="M126.445 62.3308C126.445 91.0871 134.407 119.018 136.834 147.609C137.147 151.288 139.156 160.548 135.334 163.442C132.15 165.853 125.977 165.216 122.501 165.053C112.579 164.588 102.795 162.866 93.0008 161.331C75.7501 158.626 58.5189 156.739 41.1674 154.886C27.5331 153.43 40.5922 149.234 46.723 146.997C74.0631 137.022 102.491 129.517 131.001 123.775C132.033 123.567 179.36 115.685 178.001 120.442C174.201 133.74 173.87 144.78 190.167 148.553C202.401 151.385 217.744 150.742 228.779 144.22C240.236 137.447 247.898 121.727 238.001 110.22C229.531 100.373 213.882 97.0928 201.556 96.6641C199.91 96.6069 184.678 96.3789 185.779 101.331C186.92 106.467 208.983 108.325 212.223 108.886C227.332 111.504 245.791 115.118 260.445 108.553C266.576 105.807 269.712 105.63 276.779 104.997C298.084 103.09 330.238 98.2776 343.112 79.053C344.717 76.6557 344.423 73.2067 346.279 70.9975C347.313 69.7657 353.062 72.8661 353.89 73.1086C365.856 76.613 377.352 74.3453 386.667 65.6641C392.886 59.869 398.552 50.2189 399.556 41.6086C400.762 31.2705 386.35 32.495 379.779 32.3864C371.909 32.2563 358.109 30.3882 351.556 36.2197C337.856 48.4117 375.787 78.1952 381.667 84.553C398.871 103.153 414.561 125.372 414.112 151.886C413.616 181.145 391.064 194.834 364.001 195.164C346.887 195.373 332.593 193.064 315.501 190.164C277.245 183.673 239.416 174.692 201.445 166.775C147.281 155.482 92.9662 145.867 38.3341 137.22C36.187 136.88 31.9349 137.837 32.0008 135.664C32.0205 135.012 33.0284 134.845 33.6119 134.553C37.3656 132.676 41.5367 131.591 45.5563 130.553C108.453 114.31 175.882 112.054 240.279 107.386C333.152 100.655 427.182 98.5112 519.445 85.3308" stroke="#80FFDB" stroke-width="3" stroke-linecap="round"/>
</g>
<path d="M126.445 62.3308C126.445 91.0871 134.407 119.018 136.834 147.609C137.147 151.288 139.156 160.548 135.334 163.442C132.15 165.853 125.977 165.216 122.501 165.053C112.579 164.588 102.795 162.866 93.0008 161.331C75.7501 158.626 58.5189 156.739 41.1674 154.886C27.5331 153.43 40.5922 149.234 46.723 146.997C74.0631 137.022 102.491 129.517 131.001 123.775C132.033 123.567 179.36 115.685 178.001 120.442C174.201 133.74 173.87 144.78 190.167 148.553C202.401 151.385 217.744 150.742 228.779 144.22C240.236 137.447 247.898 121.727 238.001 110.22C229.531 100.373 213.882 97.0928 201.556 96.6641C199.91 96.6069 184.678 96.3789 185.779 101.331C186.92 106.467 208.983 108.325 212.223 108.886C227.332 111.504 245.791 115.118 260.445 108.553C266.576 105.807 269.712 105.63 276.779 104.997C298.084 103.09 330.238 98.2776 343.112 79.053C344.717 76.6557 344.423 73.2067 346.279 70.9975C347.313 69.7657 353.062 72.8661 353.89 73.1086C365.856 76.613 377.352 74.3453 386.667 65.6641C392.886 59.869 398.552 50.2189 399.556 41.6086C400.762 31.2705 386.35 32.495 379.779 32.3864C371.909 32.2563 358.109 30.3882 351.556 36.2197C337.856 48.4117 375.787 78.1952 381.667 84.553C398.871 103.153 414.561 125.372 414.112 151.886C413.616 181.145 391.064 194.834 364.001 195.164C346.887 195.373 332.593 193.064 315.501 190.164C277.245 183.673 239.416 174.692 201.445 166.775C147.281 155.482 92.9662 145.867 38.3341 137.22C36.187 136.88 31.9349 137.837 32.0008 135.664C32.0205 135.012 33.0284 134.845 33.6119 134.553C37.3656 132.676 41.5367 131.591 45.5563 130.553C108.453 114.31 175.882 112.054 240.279 107.386C333.152 100.655 427.182 98.5112 519.445 85.3308" stroke="#80FFDB" stroke-width="3" stroke-linecap="round"/>
<defs>
<filter id="filter0_f_10_79" x="0.5" y="0.500977" width="550.445" height="226.176" filterUnits="userSpaceOnUse" color-interpolation-filters="sRGB">
<feFlood flood-opacity="0" result="BackgroundImageFix"/>
<feBlend mode="normal" in="SourceGraphic" in2="BackgroundImageFix" result="shape"/>
<feGaussianBlur stdDeviation="15" result="effect1_foregroundBlur_10_79"/>
</filter>
</defs>
</svg>
