<svg width="122" height="111" viewBox="0 0 122 111" fill="none" xmlns="http://www.w3.org/2000/svg">
<rect width="122" height="111" fill="black"/>
<g filter="url(#filter0_f_0_1)">
<g filter="url(#filter1_i_0_1)">
<line y1="-0.5" x2="28.6846" y2="-0.5" transform="matrix(-0.699463 0.714669 -0.756387 -0.654124 71.1277 50.5)" stroke="#00FFFF"/>
<line y1="-0.5" x2="28.6846" y2="-0.5" transform="matrix(-0.699463 0.714669 -0.756387 -0.654124 51.0638 30)" stroke="#00FFFF"/>
<line y1="-0.5" x2="28.6846" y2="-0.5" transform="matrix(-0.699463 -0.714669 0.756387 -0.654124 51.0638 71)" stroke="#00FFFF"/>
<line y1="-0.5" x2="28.6846" y2="-0.5" transform="matrix(-0.699463 -0.714669 0.756387 -0.654124 72 51.32)" stroke="#00FFFF"/>
</g>
<g filter="url(#filter2_i_0_1)">
<line y1="-0.5" x2="28.6846" y2="-0.5" transform="matrix(-0.699463 0.714669 -0.756387 -0.654124 82.1277 50.5)" stroke="#00FFFF"/>
<line y1="-0.5" x2="28.6846" y2="-0.5" transform="matrix(-0.699463 0.714669 -0.756387 -0.654124 62.0638 30)" stroke="#00FFFF"/>
<line y1="-0.5" x2="28.6846" y2="-0.5" transform="matrix(-0.699463 -0.714669 0.756387 -0.654124 62.0638 71)" stroke="#00FFFF"/>
<line y1="-0.5" x2="28.6846" y2="-0.5" transform="matrix(-0.699463 -0.714669 0.756387 -0.654124 83 51.32)" stroke="#00FFFF"/>
</g>
<g filter="url(#filter3_i_0_1)">
<line y1="-0.5" x2="28.6846" y2="-0.5" transform="matrix(-0.699463 0.714669 -0.756387 -0.654124 91.1277 50.5)" stroke="#00FFFF"/>
<line y1="-0.5" x2="28.6846" y2="-0.5" transform="matrix(-0.699463 0.714669 -0.756387 -0.654124 71.0638 30)" stroke="#00FFFF"/>
<line y1="-0.5" x2="28.6846" y2="-0.5" transform="matrix(-0.699463 -0.714669 0.756387 -0.654124 71.0638 71)" stroke="#00FFFF"/>
<line y1="-0.5" x2="28.6846" y2="-0.5" transform="matrix(-0.699463 -0.714669 0.756387 -0.654124 92 51.32)" stroke="#00FFFF"/>
</g>
<line x1="31" y1="80.5" x2="92" y2="80.5" stroke="white"/>
</g>
<g filter="url(#filter4_i_0_1)">
<line y1="-0.5" x2="28.6846" y2="-0.5" transform="matrix(-0.699463 0.714669 -0.756387 -0.654124 71.1277 50.5)" stroke="#00FFFF"/>
<line y1="-0.5" x2="28.6846" y2="-0.5" transform="matrix(-0.699463 0.714669 -0.756387 -0.654124 51.0638 30)" stroke="#00FFFF"/>
<line y1="-0.5" x2="28.6846" y2="-0.5" transform="matrix(-0.699463 -0.714669 0.756387 -0.654124 51.0638 71)" stroke="#00FFFF"/>
<line y1="-0.5" x2="28.6846" y2="-0.5" transform="matrix(-0.699463 -0.714669 0.756387 -0.654124 72 51.32)" stroke="#00FFFF"/>
</g>
<g filter="url(#filter5_i_0_1)">
<line y1="-0.5" x2="28.6846" y2="-0.5" transform="matrix(-0.699463 0.714669 -0.756387 -0.654124 82.1277 50.5)" stroke="#00FFFF"/>
<line y1="-0.5" x2="28.6846" y2="-0.5" transform="matrix(-0.699463 0.714669 -0.756387 -0.654124 62.0638 30)" stroke="#00FFFF"/>
<line y1="-0.5" x2="28.6846" y2="-0.5" transform="matrix(-0.699463 -0.714669 0.756387 -0.654124 62.0638 71)" stroke="#00FFFF"/>
<line y1="-0.5" x2="28.6846" y2="-0.5" transform="matrix(-0.699463 -0.714669 0.756387 -0.654124 83 51.32)" stroke="#00FFFF"/>
</g>
<g filter="url(#filter6_i_0_1)">
<line y1="-0.5" x2="28.6846" y2="-0.5" transform="matrix(-0.699463 0.714669 -0.756387 -0.654124 91.1277 50.5)" stroke="#00FFFF"/>
<line y1="-0.5" x2="28.6846" y2="-0.5" transform="matrix(-0.699463 0.714669 -0.756387 -0.654124 71.0638 30)" stroke="#00FFFF"/>
<line y1="-0.5" x2="28.6846" y2="-0.5" transform="matrix(-0.699463 -0.714669 0.756387 -0.654124 71.0638 71)" stroke="#00FFFF"/>
<line y1="-0.5" x2="28.6846" y2="-0.5" transform="matrix(-0.699463 -0.714669 0.756387 -0.654124 92 51.32)" stroke="#00FFFF"/>
</g>
<line x1="31" y1="80.5" x2="92" y2="80.5" stroke="white"/>
<defs>
<filter id="filter0_f_0_1" x="0.24361" y="0" width="121.756" height="111" filterUnits="userSpaceOnUse" color-interpolation-filters="sRGB">
<feFlood flood-opacity="0" result="BackgroundImageFix"/>
<feBlend mode="normal" in="SourceGraphic" in2="BackgroundImageFix" result="shape"/>
<feGaussianBlur stdDeviation="15" result="effect1_foregroundBlur_0_1"/>
</filter>
<filter id="filter1_i_0_1" x="30.2436" y="30" width="41.7564" height="45.6541" filterUnits="userSpaceOnUse" color-interpolation-filters="sRGB">
<feFlood flood-opacity="0" result="BackgroundImageFix"/>
<feBlend mode="normal" in="SourceGraphic" in2="BackgroundImageFix" result="shape"/>
<feColorMatrix in="SourceAlpha" type="matrix" values="0 0 0 0 0 0 0 0 0 0 0 0 0 0 0 0 0 0 127 0" result="hardAlpha"/>
<feOffset dy="4"/>
<feGaussianBlur stdDeviation="2"/>
<feComposite in2="hardAlpha" operator="arithmetic" k2="-1" k3="1"/>
<feColorMatrix type="matrix" values="0 0 0 0 0 0 0 0 0 0 0 0 0 0 0 0 0 0 0.25 0"/>
<feBlend mode="normal" in2="shape" result="effect1_innerShadow_0_1"/>
</filter>
<filter id="filter2_i_0_1" x="41.2436" y="30" width="41.7564" height="45.6541" filterUnits="userSpaceOnUse" color-interpolation-filters="sRGB">
<feFlood flood-opacity="0" result="BackgroundImageFix"/>
<feBlend mode="normal" in="SourceGraphic" in2="BackgroundImageFix" result="shape"/>
<feColorMatrix in="SourceAlpha" type="matrix" values="0 0 0 0 0 0 0 0 0 0 0 0 0 0 0 0 0 0 127 0" result="hardAlpha"/>
<feOffset dy="4"/>
<feGaussianBlur stdDeviation="2"/>
<feComposite in2="hardAlpha" operator="arithmetic" k2="-1" k3="1"/>
<feColorMatrix type="matrix" values="0 0 0 0 0 0 0 0 0 0 0 0 0 0 0 0 0 0 0.25 0"/>
<feBlend mode="normal" in2="shape" result="effect1_innerShadow_0_1"/>
</filter>
<filter id="filter3_i_0_1" x="50.2436" y="30" width="41.7564" height="45.6541" filterUnits="userSpaceOnUse" color-interpolation-filters="sRGB">
<feFlood flood-opacity="0" result="BackgroundImageFix"/>
<feBlend mode="normal" in="SourceGraphic" in2="BackgroundImageFix" result="shape"/>
<feColorMatrix in="SourceAlpha" type="matrix" values="0 0 0 0 0 0 0 0 0 0 0 0 0 0 0 0 0 0 127 0" result="hardAlpha"/>
<feOffset dy="4"/>
<feGaussianBlur stdDeviation="2"/>
<feComposite in2="hardAlpha" operator="arithmetic" k2="-1" k3="1"/>
<feColorMatrix type="matrix" values="0 0 0 0 0 0 0 0 0 0 0 0 0 0 0 0 0 0 0.25 0"/>
<feBlend mode="normal" in2="shape" result="effect1_innerShadow_0_1"/>
</filter>
<filter id="filter4_i_0_1" x="30.2436" y="30" width="41.7564" height="45.6541" filterUnits="userSpaceOnUse" color-interpolation-filters="sRGB">
<feFlood flood-opacity="0" result="BackgroundImageFix"/>
<feBlend mode="normal" in="SourceGraphic" in2="BackgroundImageFix" result="shape"/>
<feColorMatrix in="SourceAlpha" type="matrix" values="0 0 0 0 0 0 0 0 0 0 0 0 0 0 0 0 0 0 127 0" result="hardAlpha"/>
<feOffset dy="4"/>
<feGaussianBlur stdDeviation="2"/>
<feComposite in2="hardAlpha" operator="arithmetic" k2="-1" k3="1"/>
<feColorMatrix type="matrix" values="0 0 0 0 0 0 0 0 0 0 0 0 0 0 0 0 0 0 0.25 0"/>
<feBlend mode="normal" in2="shape" result="effect1_innerShadow_0_1"/>
</filter>
<filter id="filter5_i_0_1" x="41.2436" y="30" width="41.7564" height="45.6541" filterUnits="userSpaceOnUse" color-interpolation-filters="sRGB">
<feFlood flood-opacity="0" result="BackgroundImageFix"/>
<feBlend mode="normal" in="SourceGraphic" in2="BackgroundImageFix" result="shape"/>
<feColorMatrix in="SourceAlpha" type="matrix" values="0 0 0 0 0 0 0 0 0 0 0 0 0 0 0 0 0 0 127 0" result="hardAlpha"/>
<feOffset dy="4"/>
<feGaussianBlur stdDeviation="2"/>
<feComposite in2="hardAlpha" operator="arithmetic" k2="-1" k3="1"/>
<feColorMatrix type="matrix" values="0 0 0 0 0 0 0 0 0 0 0 0 0 0 0 0 0 0 0.25 0"/>
<feBlend mode="normal" in2="shape" result="effect1_innerShadow_0_1"/>
</filter>
<filter id="filter6_i_0_1" x="50.2436" y="30" width="41.7564" height="45.6541" filterUnits="userSpaceOnUse" color-interpolation-filters="sRGB">
<feFlood flood-opacity="0" result="BackgroundImageFix"/>
<feBlend mode="normal" in="SourceGraphic" in2="BackgroundImageFix" result="shape"/>
<feColorMatrix in="SourceAlpha" type="matrix" values="0 0 0 0 0 0 0 0 0 0 0 0 0 0 0 0 0 0 127 0" result="hardAlpha"/>
<feOffset dy="4"/>
<feGaussianBlur stdDeviation="2"/>
<feComposite in2="hardAlpha" operator="arithmetic" k2="-1" k3="1"/>
<feColorMatrix type="matrix" values="0 0 0 0 0 0 0 0 0 0 0 0 0 0 0 0 0 0 0.25 0"/>
<feBlend mode="normal" in2="shape" result="effect1_innerShadow_0_1"/>
</filter>
</defs>
</svg>
